<?xml version="1.0" encoding="UTF-8" standalone="no"?>
<!DOCTYPE svg PUBLIC "-//W3C//DTD SVG 1.1//EN"
 "http://www.w3.org/Graphics/SVG/1.1/DTD/svg11.dtd">
<!-- Generated by graphviz version 2.38.0 (20140413.2041)
 -->
<!-- Title: CFG for &#39;baz&#39; function Pages: 1 -->
<svg width="418pt" height="288pt"
 viewBox="0.00 0.00 418.00 288.00" xmlns="http://www.w3.org/2000/svg" xmlns:xlink="http://www.w3.org/1999/xlink">
<g id="graph0" class="graph" transform="scale(1 1) rotate(0) translate(4 284)">
<title>CFG for &#39;baz&#39; function</title>
<polygon fill="white" stroke="none" points="-4,4 -4,-284 414,-284 414,4 -4,4"/>
<text text-anchor="middle" x="205" y="-7.8" font-family="Times,serif" font-size="14.00">CFG for &#39;baz&#39; function</text>
<!-- Node0x5f0b0c0 -->
<g id="node1" class="node"><title>Node0x5f0b0c0</title>
<polygon fill="none" stroke="black" points="61.5,-203.5 61.5,-279.5 345.5,-279.5 345.5,-203.5 61.5,-203.5"/>
<text text-anchor="start" x="69.5" y="-264.3" font-family="Times,serif" font-size="14.00">entry:</text>
<text text-anchor="start" x="69.5" y="-249.3" font-family="Times,serif" font-size="14.00"> %ifcond = fcmp one double %x, 0.000000e+00</text>
<text text-anchor="start" x="69.5" y="-234.3" font-family="Times,serif" font-size="14.00"> br i1 %ifcond, label %then, label %else</text>
<polyline fill="none" stroke="black" points="61.5,-226.5 345.5,-226.5 "/>
<text text-anchor="middle" x="132.5" y="-211.3" font-family="Times,serif" font-size="14.00">T</text>
<polyline fill="none" stroke="black" points="203.5,-203.5 203.5,-226.5 "/>
<text text-anchor="middle" x="274.5" y="-211.3" font-family="Times,serif" font-size="14.00">F</text>
</g>
<!-- Node0x5f0bbf0 -->
<g id="node2" class="node"><title>Node0x5f0bbf0</title>
<polygon fill="none" stroke="black" points="0,-113.5 0,-166.5 193,-166.5 193,-113.5 0,-113.5"/>
<text text-anchor="start" x="8" y="-151.3" font-family="Times,serif" font-size="14.00">then: </text>
<text text-anchor="start" x="8" y="-136.3" font-family="Times,serif" font-size="14.00"> %calltmp = call double @foo()</text>
<text text-anchor="start" x="8" y="-121.3" font-family="Times,serif" font-size="14.00"> br label %ifcont</text>
</g>
<!-- Node0x5f0b0c0&#45;&gt;Node0x5f0bbf0 -->
<g id="edge1" class="edge"><title>Node0x5f0b0c0:s0&#45;&gt;Node0x5f0bbf0</title>
<path fill="none" stroke="black" d="M132.5,-203C132.5,-193.3 129.164,-183.761 124.523,-175.182"/>
<polygon fill="black" stroke="black" points="127.497,-173.337 119.299,-166.625 121.522,-176.984 127.497,-173.337"/>
</g>
<!-- Node0x5f0bcc0 -->
<g id="node3" class="node"><title>Node0x5f0bcc0</title>
<polygon fill="none" stroke="black" points="211,-113.5 211,-166.5 410,-166.5 410,-113.5 211,-113.5"/>
<text text-anchor="start" x="219" y="-151.3" font-family="Times,serif" font-size="14.00">else: </text>
<text text-anchor="start" x="219" y="-136.3" font-family="Times,serif" font-size="14.00"> %calltmp1 = call double @bar()</text>
<text text-anchor="start" x="219" y="-121.3" font-family="Times,serif" font-size="14.00"> br label %ifcont</text>
</g>
<!-- Node0x5f0b0c0&#45;&gt;Node0x5f0bcc0 -->
<g id="edge2" class="edge"><title>Node0x5f0b0c0:s1&#45;&gt;Node0x5f0bcc0</title>
<path fill="none" stroke="black" d="M274.5,-203C274.5,-193.3 277.836,-183.761 282.477,-175.182"/>
<polygon fill="black" stroke="black" points="285.478,-176.984 287.701,-166.625 279.503,-173.337 285.478,-176.984"/>
</g>
<!-- Node0x5f0bf00 -->
<g id="node4" class="node"><title>Node0x5f0bf00</title>
<polygon fill="none" stroke="black" points="15,-23.5 15,-76.5 392,-76.5 392,-23.5 15,-23.5"/>
<text text-anchor="start" x="23" y="-61.3" font-family="Times,serif" font-size="14.00">ifcont: </text>
<text text-anchor="start" x="23" y="-46.3" font-family="Times,serif" font-size="14.00"> %iftmp = phi double [ %calltmp, %then ], [ %calltmp1, %else ]</text>
<text text-anchor="start" x="23" y="-31.3" font-family="Times,serif" font-size="14.00"> ret double %iftmp</text>
</g>
<!-- Node0x5f0bbf0&#45;&gt;Node0x5f0bf00 -->
<g id="edge3" class="edge"><title>Node0x5f0bbf0&#45;&gt;Node0x5f0bf00</title>
<path fill="none" stroke="black" d="M127.736,-113.31C139.273,-103.822 152.492,-92.9509 164.623,-82.9736"/>
<polygon fill="black" stroke="black" points="166.909,-85.6249 172.41,-76.5696 162.463,-80.2184 166.909,-85.6249"/>
</g>
<!-- Node0x5f0bcc0&#45;&gt;Node0x5f0bf00 -->
<g id="edge4" class="edge"><title>Node0x5f0bcc0&#45;&gt;Node0x5f0bf00</title>
<path fill="none" stroke="black" d="M279.264,-113.31C267.727,-103.822 254.508,-92.9509 242.377,-82.9736"/>
<polygon fill="black" stroke="black" points="244.537,-80.2184 234.59,-76.5696 240.091,-85.6249 244.537,-80.2184"/>
</g>
</g>
</svg>
